<svg width="119" height="118" viewBox="0 0 119 118" fill="none" xmlns="http://www.w3.org/2000/svg">
<ellipse cx="59.5" cy="59" rx="59.5" ry="59" fill="white"/>
<path d="M42.498 38.3823H45.2568V59H42.498V57.7549C41.4157 58.8128 40.1909 59.3418 38.8237 59.3418C37.1961 59.3418 35.8452 58.7477 34.771 57.5596C33.7049 56.347 33.1719 54.8333 33.1719 53.0186C33.1719 51.2445 33.7049 49.7633 34.771 48.5752C35.8289 47.3789 37.1595 46.7808 38.7627 46.7808C40.1543 46.7808 41.3994 47.3504 42.498 48.4897V38.3823ZM35.9795 53.0186C35.9795 54.1579 36.2847 55.0856 36.895 55.8018C37.5216 56.526 38.311 56.8882 39.2632 56.8882C40.2804 56.8882 41.1024 56.5382 41.729 55.8384C42.3556 55.1141 42.6689 54.1945 42.6689 53.0796C42.6689 51.9647 42.3556 51.0451 41.729 50.3208C41.1024 49.6128 40.2886 49.2588 39.2876 49.2588C38.3436 49.2588 37.5542 49.6169 36.9194 50.333C36.2928 51.0573 35.9795 51.9525 35.9795 53.0186ZM48.7236 47.1104H51.4702V48.1724C51.9748 47.6434 52.4224 47.2812 52.813 47.0859C53.2118 46.8825 53.6838 46.7808 54.229 46.7808C54.9533 46.7808 55.7101 47.0168 56.4995 47.4888L55.2422 50.0034C54.7214 49.6291 54.2127 49.4419 53.7163 49.4419C52.2189 49.4419 51.4702 50.5731 51.4702 52.8354V59H48.7236V47.1104ZM66.668 47.1104H69.4268V59H66.668V57.7549C65.5368 58.8128 64.3201 59.3418 63.0181 59.3418C61.3742 59.3418 60.0151 58.7477 58.9409 57.5596C57.8748 56.347 57.3418 54.8333 57.3418 53.0186C57.3418 51.2363 57.8748 49.7511 58.9409 48.563C60.007 47.3748 61.3416 46.7808 62.9448 46.7808C64.3283 46.7808 65.5693 47.3504 66.668 48.4897V47.1104ZM60.1494 53.0186C60.1494 54.1579 60.4546 55.0856 61.0649 55.8018C61.6916 56.526 62.481 56.8882 63.4331 56.8882C64.4504 56.8882 65.2723 56.5382 65.8989 55.8384C66.5256 55.1141 66.8389 54.1945 66.8389 53.0796C66.8389 51.9647 66.5256 51.0451 65.8989 50.3208C65.2723 49.6128 64.4585 49.2588 63.4575 49.2588C62.5135 49.2588 61.7241 49.6169 61.0894 50.333C60.4627 51.0573 60.1494 51.9525 60.1494 53.0186ZM84.3926 58.7192C84.3926 59.2808 84.3722 59.7731 84.3315 60.1963C84.299 60.6276 84.2502 61.006 84.1851 61.3315C83.9897 62.2267 83.6073 62.9958 83.0376 63.6387C81.9634 64.8757 80.4863 65.4941 78.6064 65.4941C77.0195 65.4941 75.7134 65.0669 74.688 64.2124C73.63 63.3335 73.0197 62.1169 72.8569 60.5625H75.6157C75.7215 61.1484 75.8965 61.6001 76.1406 61.9175C76.7103 62.658 77.5404 63.0283 78.6309 63.0283C80.641 63.0283 81.646 61.7954 81.646 59.3296V57.6694C80.5555 58.7843 79.2982 59.3418 77.874 59.3418C76.2546 59.3418 74.9281 58.7559 73.8945 57.584C72.8529 56.3958 72.332 54.9106 72.332 53.1284C72.332 51.395 72.8162 49.922 73.7847 48.7095C74.8263 47.4237 76.2017 46.7808 77.9106 46.7808C79.408 46.7808 80.6532 47.3382 81.646 48.4531V47.1104H84.3926V58.7192ZM81.7559 53.0796C81.7559 51.924 81.4466 51.0003 80.8281 50.3086C80.2015 49.6006 79.3999 49.2466 78.4233 49.2466C77.3817 49.2466 76.5597 49.6331 75.9575 50.4062C75.4123 51.098 75.1396 51.9932 75.1396 53.0918C75.1396 54.1742 75.4123 55.0612 75.9575 55.7529C76.5516 56.5098 77.3735 56.8882 78.4233 56.8882C79.4731 56.8882 80.3032 56.5057 80.9136 55.7407C81.4751 55.049 81.7559 54.1619 81.7559 53.0796Z" fill="#6B5353"/>
<path d="M43.7334 66.1104H46.48V67.209C47.009 66.6556 47.4606 66.2812 47.835 66.0859C48.2337 65.8825 48.7342 65.7808 49.3364 65.7808C50.6792 65.7808 51.7412 66.3667 52.5225 67.5386C53.3851 66.3667 54.5529 65.7808 56.0259 65.7808C58.7033 65.7808 60.042 67.4043 60.042 70.6514V78H57.2832V71.396C57.2832 70.2567 57.1449 69.451 56.8682 68.979C56.5833 68.4989 56.1154 68.2588 55.4644 68.2588C54.7075 68.2588 54.1541 68.5436 53.8042 69.1133C53.4624 69.6829 53.2915 70.5985 53.2915 71.8599V78H50.5327V71.4326C50.5327 69.3167 49.9224 68.2588 48.7017 68.2588C47.9285 68.2588 47.363 68.5477 47.0049 69.1255C46.6549 69.7033 46.48 70.6147 46.48 71.8599V78H43.7334V66.1104ZM74.3364 72.7021H65.8159C65.8892 73.6787 66.2065 74.4559 66.7681 75.0337C67.3296 75.6034 68.0498 75.8882 68.9287 75.8882C69.6123 75.8882 70.1779 75.7254 70.6255 75.3999C71.0649 75.0744 71.5654 74.4722 72.127 73.5933L74.4463 74.8872C74.0882 75.4976 73.7098 76.0225 73.311 76.4619C72.9123 76.8932 72.485 77.2513 72.0293 77.5361C71.5736 77.8128 71.0812 78.0163 70.5522 78.1465C70.0233 78.2767 69.4495 78.3418 68.8311 78.3418C67.057 78.3418 65.6328 77.7721 64.5586 76.6328C63.4844 75.4854 62.9473 73.9635 62.9473 72.0674C62.9473 70.1875 63.4681 68.6657 64.5098 67.502C65.5596 66.3545 66.9512 65.7808 68.6846 65.7808C70.4342 65.7808 71.8177 66.3382 72.835 67.4531C73.8441 68.5599 74.3486 70.0939 74.3486 72.0552L74.3364 72.7021ZM71.5166 70.4561C71.1341 68.9912 70.2104 68.2588 68.7456 68.2588C68.4119 68.2588 68.0986 68.3117 67.8057 68.4175C67.5127 68.5151 67.2441 68.6616 67 68.8569C66.764 69.0441 66.5605 69.272 66.3896 69.5405C66.2188 69.8091 66.0885 70.1143 65.999 70.4561H71.5166Z" fill="#A98484"/>
</svg>
